<?xml version="1.0" encoding="UTF-8"?>
<svg id="Layer_1" xmlns="http://www.w3.org/2000/svg" version="1.1" viewBox="0 0 96 96">
  <!-- Generator: Adobe Illustrator 30.1.0, SVG Export Plug-In . SVG Version: 2.1.1 Build 136)  -->
  <defs>
    <style>
      .st0 {
        isolation: isolate;
      }

      .st1 {
        fill: #fff;
      }

      .st2 {
        fill: #e09033;
      }
    </style>
  </defs>
  <circle class="st2" cx="48" cy="48" r="40"/>
  <g class="st0">
    <path class="st1" d="M37.01,55.51h3.94c.23,3.09,3.17,5,6.88,5,4.11,0,7.06-2.3,7.06-5.69s-2.7-6-7.56-6h-2.56v-3.44h2.56c3.8,0,6.44-2.19,6.44-5.56s-2.28-5.38-5.81-5.38c-3.33,0-6.36,1.88-6.5,5.06h-3.75c.19-5.03,4.78-8.44,10.31-8.44,5.92,0,9.5,4.03,9.5,8.56,0,3.61-2.02,6.27-5.25,7.25v.25c4.03.67,6.44,3.62,6.44,7.69,0,5.23-4.61,9.12-10.81,9.12s-10.64-3.41-10.88-8.44Z"/>
  </g>
</svg>