<svg xmlns="http://www.w3.org/2000/svg" width="79" height="96" viewBox="0 0 79 96" fill="none"><path d="M39.2724 22.7138C45.1888 22.7138 49.985 17.9176 49.985 12.0012C49.985 6.08482 45.1888 1.28864 39.2724 1.28864C33.356 1.28864 28.5598 6.08482 28.5598 12.0012C28.5598 17.9176 33.356 22.7138 39.2724 22.7138Z" fill="#FA9A62"/><path d="M50.0504 72.9494H28.5598V94.44H50.0504V72.9494Z" fill="#E56000"/><path d="M54.5023 48.0044L39.3062 32.8083L24.11 48.0044L39.3062 63.2006L54.5023 48.0044Z" fill="#F87924"/><path d="M40.0467 32.7391C39.6213 32.3136 38.934 32.3136 38.5086 32.7391L25.2978 45.9498C24.6869 46.5607 23.8469 46.9098 22.9851 46.9098H2.18179C0.981804 46.9098 0 47.8916 0 49.0916V82.9093C0 84.1093 0.981804 85.0911 2.18179 85.0911H16.287C17.2579 85.0911 17.7488 86.2692 17.0616 86.9565L14.7271 89.291C14.3016 89.7165 14.3016 90.4037 14.7271 90.8292C14.9452 91.0474 15.218 91.1455 15.5016 91.1455C15.7852 91.1455 16.058 91.0364 16.2761 90.8292L22.5924 84.5129C23.0179 84.0875 23.0179 83.4002 22.5924 82.9747L16.2761 76.6585C15.8507 76.233 15.1634 76.233 14.738 76.6585C14.3125 77.0839 14.3125 77.7712 14.738 78.1966L17.5961 81.0548C18.2834 81.742 17.7925 82.9202 16.8216 82.9202H5.46538C3.65449 82.9202 2.1927 81.4584 2.1927 79.6475V52.3752C2.1927 50.5643 3.65449 49.1025 5.46538 49.1025H22.9851C23.8578 49.1025 24.6869 49.4516 25.2978 50.0625L38.5086 63.2732C38.7267 63.4914 38.9995 63.5896 39.2831 63.5896C39.5667 63.5896 39.8394 63.4805 40.0576 63.2732L54.5447 48.7861C54.9701 48.3607 54.9701 47.6734 54.5447 47.248L40.0576 32.7609L40.0467 32.7391ZM36.9595 58.626L28.6469 50.3134C27.3705 49.037 27.3705 46.9643 28.6469 45.688L36.9595 37.3754C38.2358 36.099 40.3085 36.099 41.5849 37.3754L49.8975 45.688C51.1738 46.9643 51.1738 49.037 49.8975 50.3134L41.5849 58.626C40.3085 59.9023 38.2358 59.9023 36.9595 58.626Z" fill="#1F1D1A"/><path d="M76.3626 10.9103H53.8901C52.4393 10.9103 51.1738 9.95031 50.7593 8.55397C49.1338 3.11041 43.7448 -0.707721 37.6249 0.11045C32.2686 0.83044 27.9705 5.21583 27.3596 10.5939C26.5305 17.8375 32.1923 24.001 39.2831 24.001C44.6939 24.001 49.2757 20.4011 50.7702 15.4593C51.1956 14.063 52.4502 13.0921 53.912 13.0921H73.1117C74.9226 13.0921 76.3844 14.5539 76.3844 16.3648V43.6371C76.3844 45.448 74.9226 46.9098 73.1117 46.9098H65.6718C64.7009 46.9098 64.21 45.7316 64.8973 45.0444L67.4936 42.448C67.919 42.0226 67.919 41.3353 67.4936 40.9099C67.0681 40.4844 66.3809 40.4844 65.9554 40.9099L59.6391 47.2262C59.2137 47.6516 59.2137 48.3389 59.6391 48.7643L65.9554 55.0806C66.1736 55.2988 66.4463 55.397 66.73 55.397C67.0136 55.397 67.2863 55.2879 67.5045 55.0806C67.9299 54.6552 67.9299 53.9679 67.5045 53.5424L64.9082 50.9461C64.2209 50.2588 64.7118 49.0807 65.6827 49.0807H76.3953C77.5953 49.0807 78.5771 48.0989 78.5771 46.8989V13.0812C78.5771 11.8812 77.5953 10.8994 76.3953 10.8994L76.3626 10.9103ZM40.9412 21.6774C34.2322 22.7901 28.4832 17.0411 29.5959 10.3321C30.2723 6.26309 33.545 2.99041 37.614 2.31406C44.323 1.20134 50.072 6.95036 48.9593 13.6594C48.2829 17.7284 45.0103 21.0011 40.9412 21.6774Z" fill="#1F1D1A"/><path d="M49.0903 72.0004H29.4542C28.2543 72.0004 27.2725 72.9822 27.2725 74.1822V93.8182C27.2725 95.0182 28.2543 96 29.4542 96H49.0903C50.2903 96 51.2721 95.0182 51.2721 93.8182V74.1822C51.2721 72.9822 50.2903 72.0004 49.0903 72.0004ZM45.8177 93.8182H32.7269C30.916 93.8182 29.4542 92.3564 29.4542 90.5456V77.4548C29.4542 75.644 30.916 74.1822 32.7269 74.1822H45.8177C47.6285 74.1822 49.0903 75.644 49.0903 77.4548V90.5456C49.0903 92.3564 47.6285 93.8182 45.8177 93.8182Z" fill="#1F1D1A"/></svg>
